<svg width="1360" height="365" viewBox="0 0 1360 365" fill="none" xmlns="http://www.w3.org/2000/svg">
<path d="M407.261 112.32C404.761 53.6596 359.005 5.57577 300.862 0.459858C297.355 0.143705 293.849 0 290.343 0C228.75 0 178.137 47.8539 173.682 108.354L173.338 117.034C173.338 148.103 148.074 173.366 117.005 173.366C85.9359 173.366 60.6725 148.103 60.6725 117.034C60.6725 85.9646 85.9359 60.7012 117.005 60.7012C133.732 60.7012 147.356 47.0779 147.356 30.3506C147.356 13.6233 133.732 0 117.005 0C52.4812 0 0 52.4812 0 117.005C0 181.529 52.4812 234.01 117.005 234.01C181.529 234.01 234.01 181.529 234.01 117.005C234.01 85.9359 259.273 60.6725 290.343 60.6725H291.32C317.963 61.1323 340.927 81.2798 345.899 108.613C350.958 136.463 330.005 156.725 305.719 180.207C298.591 187.105 290.486 194.951 283.244 203.085L192.767 292.786C188.225 290.199 183.081 288.819 177.936 288.819C174.257 288.819 170.693 289.509 167.302 290.889C157.329 294.912 150.402 303.075 148.333 313.278C146.292 323.309 149.367 333.627 156.582 340.812L171.901 356.131C177.476 361.707 184.863 364.811 192.939 364.983H193.111H193.744C197.692 364.983 201.932 364.538 205.724 363.244C208.468 362.308 210.735 360.413 212.79 358.368L355.815 216.076C383.665 188.628 409.158 157.07 407.233 112.263L407.261 112.32Z" fill="#33C9A6"/>
<path d="M1058 213C1058 257.183 1022.18 293 978 293C933.817 293 898 257.183 898 213C898 168.817 933.817 133 978 133C1022.18 133 1058 168.817 1058 213ZM943.6 213C943.6 231.999 959.001 247.4 978 247.4C996.999 247.4 1012.4 231.999 1012.4 213C1012.4 194.001 996.999 178.6 978 178.6C959.001 178.6 943.6 194.001 943.6 213Z" fill="#1F1F1F"/>
<path fill-rule="evenodd" clip-rule="evenodd" d="M833 61C828.582 61 825 64.5817 825 69V140.564C814.681 135.712 803.157 133 791 133C746.817 133 711 168.817 711 213C711 257.183 746.817 293 791 293C835.183 293 871 257.183 871 213C871 212.363 870.993 211.728 870.978 211.095C870.979 211.064 870.98 211.032 870.98 211V69C870.98 64.5817 867.398 61 862.98 61H833ZM791 247.4C772.001 247.4 756.6 231.999 756.6 213C756.6 194.001 772.001 178.6 791 178.6C809.999 178.6 825.4 194.001 825.4 213C825.4 231.999 809.999 247.4 791 247.4Z" fill="#1F1F1F"/>
<path fill-rule="evenodd" clip-rule="evenodd" d="M1315 282.297C1303.23 289.104 1289.57 293 1275 293C1230.82 293 1195 257.183 1195 213C1195 168.817 1230.82 133 1275 133C1289.57 133 1303.23 136.896 1315 143.703V141C1315 136.582 1318.58 133 1323 133H1352C1356.42 133 1360 136.582 1360 141V285C1360 289.418 1356.42 293 1352 293H1323C1318.58 293 1315 289.418 1315 285V282.297ZM1275 247.4C1256 247.4 1240.6 231.999 1240.6 213C1240.6 194.001 1256 178.6 1275 178.6C1294 178.6 1309.4 194.001 1309.4 213C1309.4 231.999 1294 247.4 1275 247.4Z" fill="#1F1F1F"/>
<path fill-rule="evenodd" clip-rule="evenodd" d="M1093 123C1088.58 123 1085 126.582 1085 131V285C1085 289.418 1088.58 293 1093 293H1122C1126.42 293 1130 289.418 1130 285V206.121C1130.11 205.775 1130.21 205.424 1130.3 205.067C1130.96 202.167 1131.98 199.351 1133.36 196.689C1135.96 191.645 1139.73 187.295 1144.35 184.003C1148.97 180.711 1154.31 178.571 1159.93 177.763C1162.89 177.336 1165.89 177.287 1168.85 177.609C1173.24 178.086 1177.81 175.971 1179.25 171.795L1188.54 144.955C1189.98 140.78 1187.77 136.182 1183.47 135.162C1173.71 132.846 1163.58 132.38 1153.6 133.816C1145.38 134.999 1137.42 137.452 1130 141.063V131C1130 126.582 1126.42 123 1122 123H1093Z" fill="#1F1F1F"/>
<path fill-rule="evenodd" clip-rule="evenodd" d="M555.659 83.5975L557.037 80.619C559.863 74.5089 564.477 69.4003 570.268 65.9683C573.905 63.8134 577.919 62.3714 582.095 61.7194L584.18 61.394C587.796 60.8296 591.477 60.8296 595.093 61.394L596.964 61.686C601.288 62.361 605.461 63.7879 609.293 65.9022C615.606 69.3852 620.78 74.6147 624.197 80.964L625.827 83.9927L625.818 83.9963C625.916 84.174 626.001 84.3614 626.072 84.5578L690.369 261.211C690.462 261.468 690.528 261.728 690.567 261.989C691.494 264.483 692 267.181 692 269.998C692 282.7 681.703 292.998 669 292.998C658.342 292.998 649.378 285.749 646.768 275.912L636.608 247.998H544.609L534.139 276.764C531.25 286.165 522.498 292.998 512.15 292.998C499.448 292.998 489.15 282.7 489.15 269.998C489.15 267.142 489.671 264.409 490.622 261.886C490.654 261.762 490.692 261.639 490.737 261.516L555.134 84.5862C555.265 84.2247 555.444 83.8937 555.659 83.5975ZM561.716 200.998L590.608 121.616L619.501 200.998H561.716Z" fill="#1F1F1F"/>
</svg>
